<mxfile host="app.diagrams.net" modified="2024-01-02T08:47:06.677Z" agent="Mozilla/5.0 (X11; Linux x86_64) AppleWebKit/537.36 (KHTML, like Gecko) Chrome/120.0.0.0 Safari/537.36" version="22.1.16" etag="S5i8i4qHGRxkrOyyoq0d" type="github">
  <diagram name="Страница — 1" id="7DrwEBNeWgU9FhU3bpCW">
    <mxGraphModel>
      <root>
        <mxCell id="0" />
        <mxCell id="1" parent="0" />
      </root>
    </mxGraphModel>
  </diagram>
</mxfile>
